<svg width="26" height="35" viewBox="0 0 26 35" fill="none" xmlns="http://www.w3.org/2000/svg">
<path d="M14.7899 19.5029C15.211 19.0928 15.8941 19.0928 16.3152 19.5029C16.3725 19.5586 16.421 19.6197 16.4627 19.6835C16.591 19.8467 16.6687 20.0517 16.6688 20.2753V24.2763C16.6688 24.8065 16.239 25.2371 15.7088 25.2373C15.1785 25.2373 14.7479 24.8066 14.7479 24.2763V22.5136L13.6063 23.6259C13.3835 23.8428 13.0874 23.9431 12.7957 23.9306C12.5043 23.943 12.2087 23.8425 11.9861 23.6259L10.908 22.5761V24.2763C10.908 24.8066 10.4774 25.2373 9.94708 25.2373C9.41693 25.2371 8.98712 24.8065 8.98712 24.2763V20.4716C8.91067 20.1335 9.0063 19.766 9.27618 19.5029C9.69735 19.0928 10.3804 19.0928 10.8016 19.5029L12.7957 21.4433L14.7899 19.5029Z" fill="#18549E"/>
<path d="M7.81738 17.749C6.73488 18.9266 6.07617 20.4818 6.07617 22.1865C6.07659 25.8619 9.13643 28.8416 12.9111 28.8418C16.686 28.8418 19.7467 25.862 19.7471 22.1865C19.7471 20.4816 19.0875 18.9266 18.0049 17.749H22.9355C23.0793 18.1733 23.2 18.6095 23.2939 19.0557C23.4457 19.0581 23.6008 19.078 23.7559 19.1172L24.1777 19.2236C25.0654 19.4481 25.6873 20.2475 25.6875 21.1631V22.4795C25.6873 23.3976 25.0618 24.1979 24.1709 24.4199L23.749 24.5254C23.5333 24.5791 23.3188 24.593 23.1113 24.5771C22.8805 25.397 22.561 26.1773 22.165 26.9062C22.3013 27.0367 22.4242 27.1871 22.5225 27.3604L23.1221 28.4189C23.5575 29.1882 23.4181 30.1463 22.7803 30.7676L21.6807 31.8379C21.0581 32.4439 20.1043 32.5899 19.3213 32.1982L18.1338 31.6035C17.983 31.5281 17.8464 31.4371 17.7256 31.335C16.9777 31.732 16.1797 32.0398 15.3428 32.2441C15.3499 32.4373 15.3323 32.6369 15.2793 32.8359L15.1982 33.1416C14.9647 34.0168 14.1715 34.6259 13.2656 34.626H11.7881C10.8795 34.626 10.0847 34.0134 9.85352 33.1348L9.77344 32.8291C9.70237 32.5585 9.69215 32.2885 9.72949 32.0322C9.03664 31.8058 8.37475 31.5065 7.75098 31.1445C7.70324 31.1773 7.65509 31.2119 7.60352 31.2412L6.13086 32.0781C5.33586 32.5295 4.32765 32.4021 3.67676 31.7686L2.6709 30.79C2.01692 30.1531 1.88951 29.1649 2.36035 28.3896L3.22656 26.9629C3.30592 26.8324 3.39936 26.7152 3.50098 26.6104C3.17265 25.9604 2.90466 25.2719 2.7041 24.5537C2.45536 24.5892 2.19427 24.581 1.93164 24.5146L1.50977 24.4082C0.622242 24.1838 0.000325416 23.3852 0 22.4697V21.1523C0.000397468 20.2344 0.625843 19.4339 1.5166 19.2119L1.93848 19.1074C2.13768 19.0578 2.33578 19.0418 2.52832 19.0518C2.62218 18.6069 2.74337 18.1721 2.88672 17.749H7.81738ZM12.9111 0C13.9259 0 14.749 0.800977 14.749 1.78906C14.749 2.37382 14.4592 2.89129 14.0137 3.21777V5.17676H18.2305C20.3865 5.17676 22.1991 6.64373 22.7266 8.63379C23.6278 8.82801 24.3037 9.62858 24.3037 10.5879V11.5977C24.3037 12.5186 23.6803 13.2921 22.833 13.5244V14.7441C22.833 15.2964 22.3853 15.7441 21.833 15.7441H3.98828C3.4363 15.7438 2.98828 15.2962 2.98828 14.7441V13.5234C2.14167 13.2907 1.51859 12.5182 1.51855 11.5977V10.5879C1.51856 9.59263 2.24633 8.76984 3.19824 8.61621C3.73167 6.63518 5.53995 5.17692 7.68945 5.17676H11.8086V3.21777C11.3632 2.89128 11.0732 2.3737 11.0732 1.78906C11.0733 0.801092 11.8965 0.00018534 12.9111 0ZM8.50195 8.58789C7.48732 8.58805 6.66413 9.38897 6.66406 10.377C6.66407 11.365 7.48728 12.1659 8.50195 12.166C9.51645 12.1657 10.3389 11.3649 10.3389 10.377C10.3388 9.3891 9.51641 8.58825 8.50195 8.58789ZM18.0566 8.58789C17.042 8.58805 16.2188 9.38897 16.2188 10.377C16.2188 11.365 17.042 12.1659 18.0566 12.166C19.0712 12.1657 19.8936 11.3649 19.8936 10.377C19.8935 9.38908 19.0711 8.58823 18.0566 8.58789Z" fill="#18549E"/>
</svg>
