<?xml version="1.0" standalone="no"?>
<!DOCTYPE svg PUBLIC "-//W3C//DTD SVG 20010904//EN"
 "http://www.w3.org/TR/2001/REC-SVG-20010904/DTD/svg10.dtd">
<svg version="1.0" xmlns="http://www.w3.org/2000/svg"
 width="26.000000pt" height="35.000000pt" viewBox="0 0 26.000000 35.000000"
 preserveAspectRatio="xMidYMid meet">

<g transform="translate(0.000000,35.000000) scale(0.100000,-0.100000)"
fill="#000000" stroke="none">
<path d="M116 341 c-4 -5 -3 -16 0 -25 5 -12 0 -16 -19 -16 -14 0 -38 -11 -54
-24 -24 -21 -26 -27 -18 -52 l10 -29 95 0 95 0 10 29 c8 25 6 31 -18 52 -16
13 -39 24 -53 24 -19 0 -24 5 -24 25 0 25 -14 34 -24 16z m-15 -104 c-5 -5
-17 -7 -26 -3 -14 5 -15 9 -5 21 10 12 16 13 27 4 9 -8 10 -16 4 -22z m99 7
c0 -8 -9 -14 -20 -14 -22 0 -28 26 -7 33 16 6 27 -1 27 -19z"/>
<path d="M17 159 c-20 -12 -23 -49 -3 -49 18 0 26 -20 15 -41 -11 -22 13 -43
41 -34 13 4 22 1 26 -9 7 -18 50 -22 56 -4 2 6 20 11 38 12 33 1 35 3 35 35 0
19 6 36 13 39 29 9 5 62 -30 62 -14 0 -16 -6 -11 -30 4 -24 0 -37 -17 -55 -48
-51 -126 -17 -118 51 4 36 -9 44 -45 23z"/>
<path d="M145 150 c-3 -6 -17 -7 -31 -4 -21 5 -24 3 -24 -20 0 -14 5 -26 10
-26 6 0 10 4 10 8 0 13 34 11 42 -2 4 -6 8 4 8 22 0 33 -4 39 -15 22z"/>
</g>
</svg>
